:FULLY-SPECIFIED
:FORCE-ALL-JOINTS-BE-3DOF
:DEGREES
306
root -1.32515 15.4093 -36.202 28.2085 71.2968 23.3951
lfemur -25.1011 12.9624 -24.4967
ltibia 58.244 0 0
lfoot -23.1352 26.7852 0
ltoes -9.38597 0 0
rfemur -40.4082 -6.27568 7.70364
rtibia 98.0847 0 0
rfoot 3.59359 -6.38371 0
rtoes 4.96016 0 0
lowerback 16.1554 -2.7173 -9.61937
upperback -1.41508 -5.25897 2.30708
thorax -9.57793 -1.92971 9.24951
lowerneck -7.15017 3.73594 0.813308
upperneck 2.88499 5.15521 -4.71795
head 2.34919 2.44585 -1.43221
lclavicle 4.75223e-14 -1.07134e-14 0
lhumerus 16.7815 -11.3532 67.1598
lradius 27.3244 0 0
lwrist -44.4335 0 0
lhand -20.7593 33.6849 0
lfingers 7.12502 0 0
lthumb 5.60676 63.5918 0
rclavicle 4.75223e-14 -1.07134e-14 0
rhumerus -59.2405 4.10931 -86.6909
rradius 95.4904 0 0
rwrist -74.5565 0 0
rhand -10.2102 -41.27 0
rfingers 7.12502 0 0
rthumb 15.7808 -70.6361 0
307
root -1.21191 15.3848 -36.1635 30.348 71.9451 25.637
lfemur -24.4717 12.7414 -24.4034
ltibia 58.0403 0 0
lfoot -23.237 27.1495 0
ltoes -9.39454 0 0
rfemur -40.8079 -6.29056 7.63004
rtibia 98.0291 0 0
rfoot 3.84617 -5.99865 0
rtoes 5.39581 0 0
lowerback 16.1438 -2.65934 -9.75567
upperback -1.3934 -5.20558 2.27055
thorax -9.56402 -1.89811 9.27443
lowerneck -7.09059 3.457 0.610367
upperneck 2.8553 4.77997 -4.4935
head 2.3417 2.26044 -1.34386
lclavicle 4.58167e-14 -1.10751e-14 0
lhumerus 15.8683 -11.0362 67.3824
lradius 27.8775 0 0
lwrist -43.6589 0 0
lhand -20.7665 33.7463 0
lfingers 7.12502 0 0
lthumb 5.59991 63.6542 0
rclavicle 4.58167e-14 -1.10751e-14 0
rhumerus -57.9451 3.81945 -86.3983
rradius 94.9068 0 0
rwrist -73.958 0 0
rhand -10.4798 -41.212 0
rfingers 7.12502 0 0
rthumb 15.5205 -70.5866 0
308
root -1.09049 15.3587 -36.122 32.678 72.546 28.0692
lfemur -23.8196 12.4884 -24.2767
ltibia 57.8298 0 0
lfoot -23.3488 27.5046 0
ltoes -9.40287 0 0
rfemur -41.2307 -6.32567 7.56934
rtibia 97.8768 0 0
rfoot 4.06735 -5.57742 0
rtoes 5.82418 0 0
lowerback 16.1253 -2.58536 -9.87873
upperback -1.37238 -5.12833 2.23026
thorax -9.55072 -1.85598 9.28207
lowerneck -7.01809 3.16166 0.392139
upperneck 2.82249 4.38249 -4.24866
head 2.33361 2.0642 -1.24766
lclavicle 4.3991e-14 -1.14219e-14 0
lhumerus 14.7788 -10.7753 67.7026
lradius 28.6008 0 0
lwrist -42.6686 0 0
lhand -20.757 33.8122 0
lfingers 7.12502 0 0
lthumb 5.60909 63.7205 0
rclavicle 4.3991e-14 -1.14219e-14 0
rhumerus -56.4519 3.54054 -86.0561
rradius 94.1567 0 0
rwrist -73.1277 0 0
rhand -10.7818 -41.1378 0
rfingers 7.12502 0 0
rthumb 15.2291 -70.522 0
309
root -0.961314 15.3313 -36.0778 35.1882 73.1011 30.6811
lfemur -23.146 12.2051 -24.1182
ltibia 57.6126 0 0
lfoot -23.4699 27.8506 0
ltoes -9.41125 0 0
rfemur -41.6752 -6.38011 7.52096
rtibia 97.6326 0 0
rfoot 4.25817 -5.12206 0
rtoes 6.24516 0 0
lowerback 16.0999 -2.49612 -9.98907
upperback -1.35202 -5.02833 2.18639
thorax -9.53798 -1.8038 9.2732
lowerneck -6.93329 2.85087 0.159474
upperneck 2.78676 3.96403 -3.98451
head 2.32497 1.85774 -1.14404
lclavicle 4.20534e-14 -1.17536e-14 0
lhumerus 13.5218 -10.5684 68.1158
lradius 29.4861 0 0
lwrist -41.4729 0 0
lhand -20.7316 33.8824 0
lfingers 7.12502 0 0
lthumb 5.63367 63.7903 0
rclavicle 4.20534e-14 -1.17536e-14 0
rhumerus -54.7709 3.27224 -85.6669
rradius 93.2481 0 0
rwrist -72.0769 0 0
rhand -11.1145 -41.0483 0
rfingers 7.12502 0 0
rthumb 14.9081 -70.4429 0
